<?xml version="1.0" encoding="iso-8859-1"?>
<!-- Generator: Adobe Illustrator 18.0.0, SVG Export Plug-In . SVG Version: 6.00 Build 0)  -->
<!DOCTYPE svg PUBLIC "-//W3C//DTD SVG 1.1//EN" "http://www.w3.org/Graphics/SVG/1.1/DTD/svg11.dtd">
<svg version="1.1" id="Capa_1" xmlns="http://www.w3.org/2000/svg" xmlns:xlink="http://www.w3.org/1999/xlink" x="0px" y="0px"
	 viewBox="0 0 458.94 458.94" style="enable-background:new 0 0 458.94 458.94;" xml:space="preserve">
<path d="M458.934,229.01c-0.059-28.883-5.471-56.923-15.762-83.14v-0.301c0-76.552,0.471-73.815-1.567-82.654
	c-5.206-22.575-23.005-40.374-45.58-45.58c-8.552-1.972-5.285-1.567-82.954-1.567C286.011,5.146,257.696,0,229.47,0
	c-27.915,0-56.261,5.036-83.601,15.768c-76.874,0-74.109-0.472-82.953,1.567c-22.575,5.206-40.374,23.005-45.58,45.58
	c-2.066,8.959-1.567,6.58-1.567,82.952C5.459,172.13,0.065,200.177,0.006,229.01c-0.047,29.399,5.416,57.704,15.763,84.062
	c0,76.628-0.498,73.995,1.567,82.952c5.206,22.575,23.005,40.375,45.58,45.58c8.546,1.971,5.306,1.567,82.652,1.567h0.301
	c26.112,10.251,54.326,15.768,83.601,15.768c28.237,0,56.529-5.141,83.601-15.768h0.301c76.552,0,73.813,0.471,82.654-1.567
	c22.575-5.206,40.374-23.005,45.58-45.58c2.065-8.956,1.567-6.606,1.567-82.654v-0.301
	C453.49,286.786,458.981,258.489,458.934,229.01z M366.627,171.083c-15.094-35.323-43.447-63.676-78.77-78.77l36.898-36.898
	c33.145,18.218,60.552,45.625,78.77,78.77L366.627,171.083z M229.47,347.543c-64.921,0-118.073-52.812-118.073-118.073
	c0-65.099,52.986-118.073,118.073-118.073c65.086,0,118.073,52.975,118.073,118.073C347.543,294.556,294.567,347.543,229.47,347.543
	z M92.313,171.083l-36.898-36.898c18.218-33.145,45.625-60.552,78.77-78.77l36.898,36.898
	C135.76,107.407,107.408,135.76,92.313,171.083z M92.313,287.857c15.094,35.323,43.447,63.676,78.77,78.77l-36.898,36.898
	c-33.145-18.218-60.552-45.625-78.77-78.77L92.313,287.857z M366.627,287.857l36.898,36.898
	c-18.217,33.145-45.625,60.552-78.77,78.77l-36.898-36.898C323.18,351.533,351.533,323.18,366.627,287.857z M382.36,45.768
	c16.99,0,30.813,13.822,30.813,30.812v15.523c-13.162-17.557-28.778-33.173-46.335-46.335H382.36z M45.769,76.58
	c0-16.99,13.822-30.812,30.812-30.812h15.523C74.546,58.93,58.931,74.546,45.769,92.103V76.58z M76.58,413.172
	c-16.989,0-30.812-13.822-30.812-30.812v-15.522c13.162,17.557,28.778,33.172,46.335,46.334H76.58z M413.172,382.36
	c0,16.99-13.822,30.812-30.813,30.812h-15.523c17.557-13.162,33.173-28.778,46.335-46.336V382.36z"/>
<g>
</g>
<g>
</g>
<g>
</g>
<g>
</g>
<g>
</g>
<g>
</g>
<g>
</g>
<g>
</g>
<g>
</g>
<g>
</g>
<g>
</g>
<g>
</g>
<g>
</g>
<g>
</g>
<g>
</g>
</svg>
