<?xml version="1.0" encoding="iso-8859-1"?>
<!-- Generator: Adobe Illustrator 17.1.0, SVG Export Plug-In . SVG Version: 6.00 Build 0)  -->
<!DOCTYPE svg PUBLIC "-//W3C//DTD SVG 1.1//EN" "http://www.w3.org/Graphics/SVG/1.1/DTD/svg11.dtd">
<svg version="1.1" id="Capa_1" xmlns="http://www.w3.org/2000/svg" xmlns:xlink="http://www.w3.org/1999/xlink" x="0px" y="0px"
	 viewBox="0 0 271.71 271.71" style="enable-background:new 0 0 271.71 271.71;" xml:space="preserve">
<g>
	<path d="M270.25,40.584L231.126,1.46C230.185,0.519,228.93,0,227.591,0c-1.339,0-2.595,0.519-3.536,1.46l-81.981,81.981
		c-0.941,0.941-1.46,2.197-1.46,3.535c0,1.339,0.519,2.595,1.46,3.535l39.124,39.124c0.941,0.941,2.196,1.46,3.535,1.46
		c1.339,0,2.594-0.519,3.535-1.46l81.982-81.98c0.941-0.941,1.46-2.197,1.46-3.535C271.71,42.781,271.192,41.526,270.25,40.584z"/>
	<path d="M123.18,115.594c-0.941-0.941-2.197-1.46-3.535-1.46c-1.339,0-2.595,0.519-3.536,1.46L8.554,223.149
		c-0.941,0.941-1.46,2.197-1.46,3.536c0,1.338,0.519,2.594,1.46,3.535l4.32,4.32l-12.552,33.23
		c-0.579,1.535-0.271,2.479,0.089,3.001c0.419,0.605,1.112,0.938,1.952,0.938c0.481,0,1.012-0.108,1.576-0.321l33.231-12.553
		l4.32,4.32c0.941,0.941,2.197,1.46,3.535,1.46c1.339,0,2.595-0.519,3.536-1.46l107.555-107.555c1.949-1.949,1.949-5.121,0-7.07
		L123.18,115.594z"/>
</g>
<g>
</g>
<g>
</g>
<g>
</g>
<g>
</g>
<g>
</g>
<g>
</g>
<g>
</g>
<g>
</g>
<g>
</g>
<g>
</g>
<g>
</g>
<g>
</g>
<g>
</g>
<g>
</g>
<g>
</g>
</svg>
